<?xml version="1.0" encoding="utf-8"?>
<!-- Generator: Adobe Illustrator 28.3.0, SVG Export Plug-In . SVG Version: 6.00 Build 0)  -->
<svg version="1.1" id="Layer_1" xmlns="http://www.w3.org/2000/svg" xmlns:xlink="http://www.w3.org/1999/xlink" x="0px" y="0px"
	 viewBox="0 0 100 25" style="enable-background:new 0 0 100 25;" xml:space="preserve">
<style type="text/css">
	.st0{fill:#1DA9E1;}
	.st1{fill:#0B81AF;}
</style>
<g>
	<g>
		<path class="st0" d="M19.5,3.5c-0.2,0.1-0.4,0.1-0.6,0.1c-0.3,0-0.7,0.1-1,0.2c-0.7,0.1-1.5,0.3-2.2,0.3c-0.3,0-1.3,0-1.3-0.5
			c0-0.1,0.1-0.2,0.2-0.2c0.1,0,0.2,0,0.2,0.1c0.2,0.1,0.8,0.1,1,0.1c0.7,0,1.3,0,2-0.2c0.4-0.1,1.1-0.2,1.5-0.2
			c0.1,0,0.5,0,0.5,0.2C19.7,3.4,19.6,3.5,19.5,3.5z M16.3,8.1c-0.1,0-0.2,0.1-0.4,0.1c-0.1,0-0.2-0.1-0.2-0.2V7.9
			c0-0.9,0.1-1.7,0.1-2.5c0-0.2,0-1.2,0.2-1.3h0.1c0.1,0,0.2,0.1,0.2,0.2v0.1c-0.1,0.5-0.1,1-0.1,1.6c0,0.2,0,0.4,0,0.7
			c0,0.1,0,0.4,0.1,0.4h0.1c0.1,0,0.1,0.2,0.1,0.2C16.7,7.7,16.6,8,16.3,8.1z"/>
		<path class="st0" d="M18.8,6.8c0.1-0.3,0.5-0.8,0.8-0.9c0.1,0,0.2-0.1,0.3-0.1c0,0,0.1,0,0.1,0.1s-0.3,0.5-0.4,0.6
			c-0.3,0.4-0.4,0.8-0.4,1.1c0,0.1,0.1,0.3,0.2,0.3c0.3,0,0.8-0.2,1-0.5s0.3-0.5,0.3-0.6c0-0.2-0.1-0.3-0.2-0.4s-0.2-0.2-0.2-0.3
			c0-0.2,0.1-0.4,0.4-0.4c0.2,0,0.4,0.1,0.5,0.3c0.1,0.2,0.4,0.4,0.6,0.4c0.7,0,0.9-0.2,1-0.4c0.1-0.2,0.2-0.4,0.3-0.5
			c0.1-0.1,0.2-0.3,0.4-0.3c0.2,0,0.2,0.2,0.2,0.3c0,0.2-0.1,0.4-0.2,0.6c-0.3,0.4-0.5,0.8-0.7,1.3c0,0.1,0,0.2,0,0.3
			c0,0.1,0,0.2,0.2,0.2s0.4-0.1,0.5-0.2C23.8,7.5,24,7.4,24.1,7c0-0.2,0.2-0.6,0.4-0.6c0.2,0,0.3,0.2,0.3,0.4c0,0.4-0.3,0.7-0.3,1.1
			c0,0.1,0,0.2,0.2,0.2c0.1,0,0.1,0,0.2,0c0.6-0.3,0.7-0.9,0.7-1.5c0-0.1,0-0.2,0-0.4c0-0.1-0.1-0.2-0.1-0.4c0-0.2,0.2-0.2,0.3-0.2
			c0.1,0,0.2,0.1,0.2,0.2c0.1,0.5,0,1.8,0.8,1.8c0.4,0,1.1-0.5,1.2-0.5l0.1,0.1c0,0.5-1,0.9-1.4,0.9s-0.5-0.2-0.6-0.2
			c-0.2,0-0.6,1-1.5,1c-0.1,0-0.2,0-0.3-0.1c-0.1-0.1-0.1-0.3-0.2-0.4V8.3c-0.1,0-0.7,0.4-1.1,0.4c-0.3,0-0.5-0.2-0.5-0.5
			c0-0.1,0-0.2,0-0.3c0-0.2,0.1-0.3,0.2-0.5c0-0.1,0.1-0.2,0.1-0.2l0,0h-0.1c-0.2,0-0.3,0.1-0.4,0.1c-0.4,0-0.5-0.1-0.6-0.1
			c0,0,0,0,0,0.1c-0.1,0.3-0.2,0.5-0.2,0.5c-0.2,0.2-0.4,0.5-0.6,0.6c-0.3,0.3-0.9,0.5-1.3,0.5c-0.5,0-0.5-0.3-0.5-0.7
			C18.6,7.3,18.6,7.1,18.8,6.8z"/>
		<path class="st0" d="M31.9,7.7c-0.5,0.3-1,0.5-1.6,0.5h-0.1c-0.7,0-0.5-0.7-0.6-0.9l0,0c-0.2,0-0.7,0.5-0.8,0.6
			c-0.1,0.2-0.4,0.4-0.6,0.4S28,8.1,28,7.9c0-0.2,0-0.4,0-0.6c0,0,0-0.3-0.1-0.3s-0.7,0.5-1.1,0.5c-0.1,0-0.2,0-0.2-0.1
			c0,0,0-0.1,0.1-0.1c0,0,0.3-0.2,0.4-0.2c0.2-0.1,0.4-0.2,0.6-0.4c0.2-0.1,0.3-0.3,0.4-0.4s0.6-0.8,0.8-0.8c0.1,0,0.3,0,0.3,0.2
			c0,0.4-0.5,1.2-0.5,1.4v0.1c0.1,0,1.2-1,1.6-1c0.2,0,0.3,0.2,0.3,0.4c0,0.3-0.2,0.5-0.2,0.8c0,0.2,0.1,0.2,0.2,0.2h0.1
			c0.6-0.1,0.8-0.1,1.3-0.4c0.2-0.1,0.5-0.3,0.6-0.3V7C32.6,7.3,32.1,7.6,31.9,7.7z"/>
		<path class="st0" d="M39.8,6.7L39.8,6.7C39.8,6.6,39.8,6.6,39.8,6.7c-0.3,0-0.5,0-0.6,0s-0.2,0-0.3,0c-0.3,0-0.5-0.1-0.5-0.1
			s0,0,0,0.1c-0.1,0.3-0.2,0.5-0.2,0.5c-0.2,0.2-0.4,0.5-0.6,0.6c-0.3,0.3-0.9,0.5-1.3,0.5c-0.5,0-0.5-0.3-0.5-0.7
			c0-0.3,0-0.5,0.1-0.8s0.5-0.8,0.8-0.9c0.1,0,0.2-0.1,0.3-0.1c0,0,0.1,0,0.1,0.1s-0.3,0.5-0.4,0.6c-0.3,0.4-0.4,0.8-0.4,1.1
			c0,0.1,0.1,0.3,0.2,0.3c0.3,0,0.7-0.2,1-0.5c0.2-0.3,0.3-0.5,0.3-0.6c0-0.2-0.1-0.3-0.2-0.4c-0.1-0.1-0.2-0.2-0.2-0.3
			c0-0.2,0.1-0.4,0.4-0.4c0.2,0,0.4,0.1,0.5,0.3c0.1,0.2,0.4,0.4,0.6,0.4h0.2c0.2,0,0.8-0.1,0.9-0.3c0.1-0.1,0.1-0.2,0.2-0.4
			c0.1-0.2,0.2-0.5,0.2-0.7c0.1-0.3,0.4-1.3,0.8-1.3c0.2,0,0.3,0.3,0.3,0.5c0,0.3-0.1,0.7-0.1,1c-0.1,0.6-0.4,0.7-0.7,1.1
			c-0.2,0.2-0.4,0.9-0.4,1.2c0,0,0,0.2,0.1,0.2s0.2,0.1,0.3,0.1c0.6,0,1.5-0.6,1.7-0.6l0.1,0.1c0,0.3-1.3,0.9-1.6,0.9
			c-0.1,0-0.3,0.1-0.5,0.1h-0.1c-0.1,0-0.2,0-0.2,0.2v0.1c0,0.1,0.1,0.2,0.1,0.3c0.1,0.2,0.1,0.4,0.1,0.6v0.1c0,0.7,0,3-0.9,3
			c-0.3,0-0.5-0.2-0.5-0.5c0-0.1,0-0.3,0-0.4c0-0.8,0.1-1.7,0.3-2.5c0.1-0.3,0.1-0.5,0.2-0.8V8.3c0,0-0.3-0.4-0.3-0.7
			c0-0.1,0.1-0.3,0.2-0.3c0,0,0.1,0,0.2,0c0.2,0,0.2-0.2,0.2-0.3C39.7,7,39.7,6.8,39.8,6.7z M39.9,8.9V8.8V8.9
			c-0.2,0.1-0.3,1.1-0.4,1.2c-0.1,0.4-0.2,0.8-0.2,1.3c0,0.1,0,0.4,0.1,0.4s0.3-0.4,0.3-0.5c0.2-0.4,0.2-1.1,0.2-1.5
			C39.9,9.5,39.9,9.2,39.9,8.9z"/>
	</g>
	<g>
		<path class="st1" d="M2.4,9.2h6.9l0.1,2.5H9c-0.1-0.4-0.1-0.8-0.2-1.1c-0.1-0.3-0.2-0.5-0.4-0.6S8.1,9.8,7.8,9.8
			C7.5,9.7,7.2,9.7,6.9,9.7H6.4v7.6h1.3v0.5H3.9v-0.5h1.3V9.7H4.8c-0.3,0-0.5,0-0.7,0c-0.2,0-0.4,0.1-0.5,0.1S3.3,9.9,3.2,10
			c-0.1,0.1-0.2,0.2-0.3,0.4S2.8,10.7,2.7,11c-0.1,0.2-0.1,0.5-0.1,0.8H2.2L2.4,9.2z"/>
		<path class="st1" d="M10.4,14.9c0-0.5,0.1-0.9,0.2-1.3c0.1-0.4,0.3-0.7,0.6-1c0.2-0.3,0.5-0.5,0.9-0.6c0.3-0.1,0.7-0.2,1.1-0.2
			c0.4,0,0.7,0.1,1.1,0.2s0.6,0.4,0.8,0.6s0.4,0.6,0.5,1s0.2,0.8,0.2,1.3s-0.1,0.9-0.2,1.3c-0.1,0.4-0.3,0.7-0.5,1s-0.5,0.5-0.8,0.7
			c-0.5,0-0.9,0-1.3,0c-0.4,0-0.8-0.1-1.1-0.2s-0.6-0.3-0.8-0.6c-0.2-0.3-0.4-0.6-0.5-1C10.4,15.8,10.4,15.3,10.4,14.9z M11.3,14.8
			c0,0.4,0,0.7,0.1,1c0,0.3,0.1,0.5,0.2,0.7s0.2,0.4,0.3,0.5s0.2,0.2,0.4,0.3c0.1,0.1,0.3,0.1,0.4,0.2c0.2,0,0.3,0,0.5,0
			s0.3,0,0.5,0s0.3-0.1,0.4-0.2c0.1-0.1,0.3-0.2,0.4-0.3s0.2-0.3,0.3-0.5s0.1-0.5,0.2-0.8c0-0.3,0.1-0.6,0.1-1s0-0.7-0.1-1
			s-0.1-0.5-0.2-0.7c-0.1-0.2-0.2-0.4-0.3-0.5s-0.2-0.2-0.3-0.3c-0.1-0.1-0.3-0.1-0.4-0.2s-0.3,0-0.5,0s-0.3,0-0.5,0
			s-0.3,0.1-0.4,0.2c-0.1,0.1-0.3,0.2-0.4,0.3s-0.2,0.3-0.3,0.5s-0.1,0.5-0.2,0.8C11.3,14.1,11.3,14.4,11.3,14.8z"/>
		<path class="st1" d="M18.8,11.8c0.5,0,0.8,0,1.2,0.1s0.6,0.2,0.8,0.3c0.2,0.1,0.3,0.3,0.4,0.5s0.1,0.4,0.1,0.7
			c0,0.2,0,0.5-0.1,0.7s-0.2,0.4-0.4,0.6c-0.2,0.2-0.4,0.3-0.8,0.4s-0.7,0.2-1.2,0.2h-0.6v2.2h0.9v0.3h-2.5v-0.3h0.8v-5.3h-0.8v-0.3
			h2.2V11.8z M18.2,15h0.5c0.3,0,0.6,0,0.8-0.1c0.2,0,0.4-0.1,0.5-0.2s0.2-0.3,0.3-0.5c0.1-0.2,0.1-0.4,0.1-0.7c0-0.2,0-0.4-0.1-0.6
			c0-0.2-0.1-0.3-0.2-0.4s-0.3-0.2-0.5-0.2c-0.2-0.1-0.5-0.1-0.8-0.1h-0.6C18.2,12.2,18.2,15,18.2,15z"/>
		<path class="st1" d="M22,16h0.3c0,0.3,0.1,0.6,0.2,0.8s0.2,0.4,0.3,0.5c0.1,0.1,0.3,0.2,0.5,0.3c0.2,0.1,0.4,0.1,0.5,0.1
			c0.2,0,0.4,0,0.6-0.1s0.3-0.1,0.4-0.2S25,17.2,25,17s0.1-0.3,0.1-0.5s0-0.4-0.1-0.5c-0.1-0.1-0.2-0.3-0.3-0.4s-0.3-0.2-0.5-0.3
			c-0.2-0.1-0.4-0.1-0.6-0.2s-0.4-0.2-0.6-0.2s-0.4-0.2-0.5-0.3c-0.1-0.1-0.3-0.3-0.4-0.5S22,13.7,22,13.4c0-0.3,0-0.5,0.1-0.7
			s0.2-0.4,0.4-0.5c0.2-0.1,0.4-0.3,0.6-0.3s0.5-0.1,0.8-0.1c0.1,0,0.3,0,0.4,0s0.3,0,0.4,0.1c0.1,0,0.3,0.1,0.4,0.1
			s0.3,0.1,0.4,0.1v1.5h-0.3c0-0.3-0.1-0.5-0.2-0.7s-0.2-0.3-0.3-0.4s-0.3-0.2-0.4-0.2c-0.2,0-0.3-0.1-0.5-0.1s-0.4,0-0.5,0.1
			c-0.2,0.1-0.3,0.1-0.4,0.2s-0.2,0.2-0.2,0.3c-0.1,0.1-0.1,0.3-0.1,0.5s0,0.4,0.1,0.5s0.2,0.3,0.3,0.3c0.1,0.1,0.3,0.2,0.5,0.3
			s0.4,0.2,0.6,0.2c0.2,0.1,0.4,0.2,0.6,0.2c0.2,0.1,0.4,0.2,0.5,0.3c0.2,0.1,0.3,0.3,0.4,0.5s0.1,0.4,0.1,0.7c0,0.3,0,0.5-0.1,0.7
			s-0.2,0.4-0.4,0.5c-0.2,0.1-0.4,0.3-0.7,0.3s-0.4,0.1-0.7,0.1c-0.1,0-0.3,0-0.4,0s-0.3,0-0.4-0.1c-0.1,0-0.3-0.1-0.4-0.1
			s-0.3-0.1-0.4-0.1L22,16z"/>
		<path class="st1" d="M28.1,17.5v0.3h-2v-0.3h0.8l2.1-5.7h0.3l2,5.7h0.8v0.3h-2.5v-0.3h0.9l-0.6-1.8H28l-0.7,1.8
			C27.3,17.5,28.1,17.5,28.1,17.5z M29,13l-0.9,2.4h1.7L29,13L29,13z"/>
		<path class="st1" d="M34,12.1v5.3h0.8v0.3h-2.5v-0.3h0.8v-5.3h-0.8v-0.3h2.5v0.3H34z"/>
		<path class="st1" d="M38,17.5c0.2,0,0.4,0,0.6,0s0.3,0,0.4-0.1c0.1,0,0.2-0.1,0.3-0.2s0.2-0.2,0.2-0.3c0.1-0.1,0.1-0.3,0.2-0.5
			s0.1-0.4,0.1-0.7h0.3L40,17.8h-4.6v-0.3h0.8v-5.3h-0.8v-0.3h2.5v0.3h-0.8v5.3C37.1,17.5,38,17.5,38,17.5z"/>
		<path class="st1" d="M48.8,13.3c0.4,0.1,0.7,0.2,1,0.3s0.5,0.3,0.7,0.5s0.3,0.4,0.4,0.6s0.1,0.5,0.1,0.7c0,0.3-0.1,0.6-0.2,0.9
			c-0.1,0.3-0.3,0.5-0.6,0.8c-0.3,0.2-0.6,0.4-1,0.5s-1,0.2-1.6,0.2h-3.7v-0.5h1.2V9.7h-1.2V9.2h3.5c0.6,0,1.1,0.1,1.5,0.2
			s0.7,0.2,1,0.4c0.3,0.2,0.4,0.4,0.6,0.6c0.1,0.2,0.2,0.5,0.2,0.8c0,0.2,0,0.4-0.1,0.7s-0.2,0.4-0.3,0.6c-0.2,0.2-0.3,0.3-0.6,0.5
			S49.1,13.2,48.8,13.3L48.8,13.3z M46.2,13.1h0.7c0.5,0,0.9,0,1.2-0.1s0.6-0.2,0.8-0.3c0.2-0.1,0.3-0.3,0.4-0.6s0.1-0.5,0.1-0.9
			c0-0.3,0-0.5-0.1-0.7S49.1,10.1,49,10s-0.4-0.2-0.6-0.3s-0.6-0.1-1-0.1h-1.1v3.5H46.2z M46.2,17.3h1.3c0.4,0,0.8,0,1-0.1
			c0.3-0.1,0.5-0.2,0.7-0.3s0.3-0.3,0.4-0.6c0.1-0.3,0.1-0.5,0.1-0.9c0-0.3,0-0.6-0.1-0.8s-0.2-0.4-0.4-0.6
			c-0.2-0.1-0.4-0.3-0.8-0.3c-0.3-0.1-0.8-0.1-1.3-0.1h-0.9V17.3z"/>
		<path class="st1" d="M53.6,14.5h0.5c0.2,0,0.3,0,0.5,0c0.1,0,0.2-0.1,0.3-0.1c0.1-0.1,0.1-0.2,0.2-0.3c0-0.1,0.1-0.3,0.1-0.6h0.3
			v2.4h-0.4c0-0.3,0-0.4-0.1-0.6S54.9,15,54.8,15c-0.1-0.1-0.2-0.1-0.3-0.1s-0.3,0-0.5,0h-0.5v2.6h1.1c0.2,0,0.4,0,0.6,0
			c0.2,0,0.3,0,0.4-0.1s0.2-0.1,0.3-0.2s0.2-0.2,0.2-0.3s0.1-0.3,0.2-0.5s0.1-0.4,0.1-0.6h0.3l-0.1,2h-4.7v-0.3h0.8v-5.3h-0.8v-0.3
			h4.6l0.1,1.7h-0.3c0-0.3-0.1-0.5-0.2-0.7c-0.1-0.2-0.1-0.3-0.3-0.4c-0.1-0.1-0.3-0.2-0.4-0.2c-0.2,0-0.4-0.1-0.7-0.1h-1.3v2.3
			H53.6z"/>
		<path class="st1" d="M59.2,17.5v0.3h-2v-0.3H58l2.1-5.7h0.3l2,5.7h0.8v0.3h-2.5v-0.3h0.9L61,15.7h-1.9l-0.7,1.8
			C58.4,17.5,59.2,17.5,59.2,17.5z M60,13l-0.9,2.4h1.7L60,13L60,13z"/>
		<path class="st1" d="M68.1,16L68,17.6c-0.1,0-0.3,0.1-0.4,0.1c-0.2,0-0.3,0.1-0.5,0.1s-0.3,0-0.5,0.1c-0.2,0-0.3,0-0.4,0
			c-0.4,0-0.8-0.1-1.1-0.2c-0.3-0.1-0.6-0.3-0.9-0.6s-0.4-0.6-0.5-1c-0.1-0.4-0.2-0.8-0.2-1.3s0.1-0.9,0.2-1.3
			c0.1-0.4,0.3-0.7,0.6-1s0.5-0.5,0.9-0.6c0.3-0.1,0.7-0.2,1.2-0.2c0.1,0,0.2,0,0.4,0s0.3,0,0.4,0.1c0.1,0,0.3,0.1,0.4,0.1
			S67.9,12,68,12v1.5h-0.3c0-0.3-0.1-0.5-0.2-0.7s-0.2-0.3-0.3-0.4c-0.1-0.1-0.3-0.2-0.4-0.2c-0.2,0-0.3-0.1-0.5-0.1s-0.4,0-0.5,0
			c-0.2,0-0.3,0.1-0.5,0.2c-0.1,0.1-0.3,0.2-0.4,0.3c-0.1,0.1-0.2,0.3-0.3,0.5s-0.1,0.5-0.2,0.8s-0.1,0.6-0.1,1s0,0.7,0.1,1
			c0,0.3,0.1,0.5,0.2,0.7s0.2,0.4,0.3,0.5c0.1,0.1,0.2,0.2,0.4,0.3s0.3,0.1,0.4,0.2s0.3,0,0.5,0s0.4,0,0.6-0.1
			c0.2,0,0.3-0.1,0.5-0.3c0.1-0.1,0.2-0.3,0.3-0.5c0.1-0.2,0.2-0.5,0.2-0.8L68.1,16L68.1,16z"/>
		<path class="st1" d="M69.8,17.5v-5.3H69v-0.3h2.5v0.3h-0.8v2.4h2.8v-2.4h-0.8v-0.3h2.5v0.3h-1.1v5.3h0.8v0.3h-2.5v-0.3h0.8v-2.6
			h-2.8v2.6h0.8v0.3h-2.5v-0.3H69.8z"/>
		<path class="st1" d="M76.4,19.5c0.1-0.1,0.3-0.3,0.4-0.4s0.2-0.3,0.3-0.4c0.1-0.1,0.2-0.3,0.2-0.4c0.1-0.1,0.1-0.3,0.1-0.5
			c0-0.1,0-0.1,0-0.2c0,0,0-0.1,0-0.2l0,0c-0.1,0.1-0.2,0.2-0.3,0.3c-0.2,0.2-0.3,0.2-0.4,0.2s-0.2,0-0.3,0c-0.1,0-0.2-0.1-0.2-0.1
			c-0.1-0.1-0.1-0.1-0.2-0.2c0-0.1-0.1-0.2-0.1-0.3c0-0.1,0-0.2,0.1-0.3s0.1-0.2,0.2-0.3c0.1-0.1,0.2-0.2,0.3-0.2
			c0.1-0.1,0.2-0.1,0.4-0.1c0.1,0,0.3,0,0.4,0.1s0.3,0.1,0.4,0.3c0.1,0.1,0.2,0.3,0.3,0.4c0.1,0.2,0.1,0.4,0.1,0.6
			c0,0.4-0.1,0.7-0.3,1.1c-0.2,0.4-0.5,0.7-0.9,1.1c-0.1,0-0.1-0.1-0.2-0.2C76.5,19.6,76.4,19.6,76.4,19.5z"/>
		<path class="st1" d="M89.4,17.9h-0.5L83.8,10l0,0v7.3h1.1v0.5h-2.8v-0.5h1.2V9.7h-1.2V9.2h2.6l4.1,6.4l0,0V9.7h-1.2V9.2h2.9v0.5
			h-1.2L89.4,17.9L89.4,17.9z"/>
		<path class="st1" d="M98.2,15.2l-0.1,2.4c-0.2,0.1-0.4,0.1-0.6,0.2s-0.4,0.1-0.7,0.1c-0.2,0-0.4,0.1-0.7,0.1c-0.2,0-0.4,0-0.6,0
			c-0.6,0-1.1-0.1-1.6-0.3c-0.5-0.2-0.9-0.5-1.2-0.9c-0.3-0.4-0.6-0.8-0.8-1.4c-0.2-0.5-0.3-1.2-0.3-1.8c0-0.7,0.1-1.3,0.3-1.9
			c0.2-0.6,0.5-1,0.8-1.4s0.8-0.7,1.3-0.9c0.5-0.2,1.1-0.3,1.7-0.3c0.2,0,0.4,0,0.5,0s0.4,0,0.6,0.1c0.2,0,0.4,0.1,0.6,0.1
			s0.4,0.1,0.6,0.2l0.1,2.2h-0.4c0-0.4-0.1-0.8-0.2-1c-0.1-0.3-0.3-0.5-0.5-0.6s-0.4-0.3-0.6-0.3c-0.2-0.1-0.5-0.1-0.7-0.1
			c-0.3,0-0.5,0-0.7,0.1c-0.2,0-0.4,0.1-0.6,0.2s-0.4,0.3-0.5,0.5s-0.3,0.4-0.4,0.7c-0.1,0.3-0.2,0.7-0.3,1.1
			c-0.1,0.4-0.1,0.9-0.1,1.4s0,1,0.1,1.4s0.1,0.8,0.3,1.1c0.1,0.3,0.2,0.5,0.4,0.7s0.3,0.3,0.5,0.5c0.2,0.1,0.4,0.2,0.6,0.2
			s0.5,0.1,0.7,0.1c0.3,0,0.6,0,0.8-0.1c0.3-0.1,0.5-0.2,0.7-0.4c0.2-0.2,0.4-0.4,0.5-0.7c0.1-0.3,0.2-0.7,0.3-1.1h0.2V15.2z"/>
	</g>
	<g>
		<rect x="1.8" y="5.8" class="st1" width="11.8" height="0.2"/>
	</g>
	<g>
		<rect x="43.9" y="5.8" class="st1" width="54.3" height="0.2"/>
	</g>
	<g>
		<rect x="1.8" y="21.9" class="st1" width="96.4" height="0.2"/>
	</g>
</g>
</svg>
